<?xml version="1.0" standalone="no"?>
<!DOCTYPE svg PUBLIC "-//W3C//DTD SVG 20010904//EN"
 "http://www.w3.org/TR/2001/REC-SVG-20010904/DTD/svg10.dtd">
<svg version="1.0" xmlns="http://www.w3.org/2000/svg"
 width="500.000000pt" height="500.000000pt" viewBox="0 0 500.000000 500.000000"
 preserveAspectRatio="xMidYMid meet">
<metadata>
Created by potrace 1.11, written by Peter Selinger 2001-2013
</metadata>
<g transform="translate(0.000000,500.000000) scale(0.100000,-0.100000)"
fill="#000000" stroke="none">
<path d="M37 4968 c-16 -8 -15 -13 9 -55 14 -26 38 -59 52 -75 52 -57 208
-214 272 -274 95 -89 392 -347 580 -504 30 -25 86 -72 125 -105 38 -34 106
-89 150 -125 44 -35 84 -67 89 -71 12 -11 -79 -55 -155 -74 -44 -12 -89 -16
-141 -13 -43 3 -78 2 -78 -2 0 -12 77 -125 96 -140 105 -85 192 -114 319 -108
l83 4 -23 -45 c-71 -142 -129 -325 -160 -511 -9 -52 -18 -106 -20 -120 -3 -14
-7 -45 -11 -70 -3 -25 -7 -52 -9 -60 -2 -8 -7 -37 -10 -65 -4 -27 -8 -57 -10
-65 -2 -8 -7 -40 -10 -70 -24 -206 -71 -360 -183 -600 -87 -187 -105 -230
-139 -328 -29 -86 -37 -124 -39 -194 -1 -48 2 -104 7 -125 5 -21 11 -45 13
-53 6 -23 49 -111 71 -145 32 -51 147 -161 209 -200 32 -20 90 -49 130 -63 61
-22 88 -25 196 -26 142 0 192 14 307 86 99 62 160 137 231 281 34 69 83 152
108 184 68 84 203 210 233 217 14 4 37 9 51 11 14 3 53 15 88 26 276 87 437
276 441 517 1 35 4 43 18 40 17 -3 89 -129 97 -170 2 -12 13 -52 25 -88 11
-36 22 -76 25 -90 2 -14 12 -59 21 -100 9 -41 23 -109 30 -150 8 -41 16 -86
19 -100 11 -56 26 -148 33 -200 11 -75 10 -462 -1 -645 -5 -82 -9 -229 -10
-325 l-1 -175 918 -3 917 -2 0 1744 c0 1010 -4 1747 -9 1750 -5 3 -21 29 -36
58 -15 29 -33 60 -41 69 -8 8 -14 19 -14 23 0 4 -16 32 -35 62 -19 30 -35 59
-35 64 0 6 -4 10 -8 10 -4 0 -15 12 -24 28 -43 72 -172 202 -290 293 -67 51
-76 56 -68 34 14 -36 58 -212 64 -255 13 -91 20 -193 19 -275 -1 -203 -6 -235
-17 -120 -17 186 -85 374 -190 532 -14 21 -37 55 -51 75 -38 57 -225 239 -287
280 -132 88 -311 149 -483 165 -90 8 -238 8 -390 -2 -66 -4 -125 -7 -132 -8
-9 0 -8 -8 2 -27 26 -50 45 -180 26 -180 -6 0 -11 6 -11 14 0 22 -89 96 -148
123 -78 37 -132 38 -248 9 -116 -29 -286 -86 -341 -112 l-38 -19 -85 38 c-163
74 -191 91 -237 145 -69 79 -98 66 -94 -43 2 -76 28 -194 56 -262 8 -18 10
-33 6 -33 -5 0 -56 18 -114 39 -90 34 -157 65 -312 144 -16 8 -41 17 -55 19
-36 4 -38 -37 -6 -101 l26 -50 -45 27 c-74 45 -326 203 -382 239 -28 18 -56
33 -61 33 -6 0 -12 3 -14 8 -3 7 -135 92 -144 92 -2 0 -22 11 -43 24 -21 13
-80 48 -132 76 -52 29 -117 65 -146 81 -149 83 -254 129 -369 164 -5 1 -18 -1
-27 -7z"/>
</g>
</svg>
